<?xml version="1.0" encoding="utf-8"?>
<!-- Generator: Adobe Illustrator 19.2.1, SVG Export Plug-In . SVG Version: 6.00 Build 0)  -->
<svg version="1.1" id="layer" xmlns="http://www.w3.org/2000/svg" xmlns:xlink="http://www.w3.org/1999/xlink" x="0px" y="0px"
	 viewBox="0 0 652 652" width="50" height="60" style="enable-background:new 0 0 652 652;" xml:space="preserve" fill="#0045E6">

<path class="st0" d="M600.1,238l-2,0.3l-1.7,0.6l-2,0.8l-1.7,0.6l-1.7,1.1l-1.4,1.1l-1.4,1.4l-1.4,1.4l-1.1,1.4l-0.8,1.7l-0.8,1.7
	l-0.8,2l-0.6,1.7l-0.3,2v4.2l0.3,2l0.6,2l0.8,1.7l0.8,1.7l0.8,1.7l1.1,1.4l1.4,1.4l1.4,1.4l1.4,1.1l1.7,1.1l1.7,0.8l2,0.6l1.7,0.6
	l2,0.3h4.2l2-0.3l1.7-0.6l2-0.6l1.7-0.8l1.7-1.1l1.4-1.1l1.4-1.1l1.4-1.4l1.1-1.4l0.8-1.7l0.8-1.7l0.8-1.7l0.3-2l0.6-2v-4.8l-0.6-2
	l-0.3-1.7l-0.8-1.9l-0.8-1.7l-0.8-1.7l-1.1-1.4l-1.4-1.4l-1.4-1.1l-1.4-1.1l-1.7-1.1l-1.7-0.8l-2-0.6l-1.7-0.6l-2-0.3H600.1
	L600.1,238z M599.3,272.7l-3.1-0.8l-2.5-1.4l-2.2-2l-2-2.2l-1.4-2.5l-0.8-3.1l-0.3-3.1l0.3-3.1l0.8-2.8l1.4-2.5l2-2.2l2.3-2l2.5-1.4
	l3.1-0.8l3.1-0.3l3.1,0.3l2.8,0.8l2.5,1.4l2.2,2l2,2.2l1.4,2.5l0.8,3.1l0.3,3.1l-0.3,3.1l-0.8,2.8l-1.4,2.5l-2,2.2l-2.3,2l-2.5,1.4
	l-2.8,0.8l-3.1,0.3C602.4,273,599.3,272.7,599.3,272.7z M346.4,238v164.7H375v-51.2h11.2l37.6,51.2h35L407,338.1l45.4-60.4h-33.6
	l-35.3,45.6H375V238C375,238,346.4,238,346.4,238z M158.3,402.7h29.2V238h-29.2V402.7z M593.7,247.2v21.2h4.5v-8.7h4.2l4.8,8.7h5
	l-5.3-8.9l1.4-0.3l1.1-0.3l1.1-0.3l0.8-0.6l0.6-0.8l0.6-1.1l0.3-1.1v-1.4l-0.3-1.9l-0.3-1.4l-0.8-1.1l-0.8-0.8l-1.4-0.6l-1.4-0.3
	l-3.4-0.3L593.7,247.2L593.7,247.2z M598.2,250.6h5.3l2,0.3l1.4,0.3l0.6,0.3l0.6,0.6l0.3,0.6v0.6l-0.3,1.7l-0.3,0.6l-0.3,0.6
	l-1.4,0.3l-1.4,0.3h-6.5L598.2,250.6L598.2,250.6z M512.1,278h-5.6l-5.3,0.6l-5,0.6l-4.8,0.8l-4.5,1.1l-3.9,1.4l-3.6,1.9l-3.4,2
	l-3.1,2.5l-2.5,3.1l-2,3.4l-1.7,3.6l-1.1,4.5l-0.8,4.8v10.4l0.8,4.8l0.8,3.9l1.7,3.6l1.7,3.4l2.5,2.8l2.5,2.5l3.1,2.2l3.6,1.7
	l3.6,1.7l4.5,1.4l4.5,1.1l5,0.8l5.3,0.8l5.6,0.6l6.2,0.6l8.4,0.6l7,0.8l5.6,1.1l2.3,0.8l2,0.8l1.7,1.1l1.4,1.1l1.1,1.1l0.8,1.4
	l0.6,1.4l0.6,1.7l0.3,1.7v4.2l-0.3,2l-0.3,1.7l-0.6,1.7l-0.8,1.7l-1.1,1.4l-1.1,1.1l-1.1,1.1l-1.7,1.1l-1.7,0.8l-2,0.6l-2,0.6
	l-5,0.6l-5.9,0.3h-14.3l-4.5-0.8l-1.7-0.6l-2-0.6l-1.4-0.8l-1.4-1.1l-1.1-1.1l-0.8-1.4l-0.8-1.7l-0.8-2l-0.3-2l-0.6-2.2l-0.3-5.6
	h-29.7v9.5l0.3,2.8l0.3,2.8l0.8,2.2l0.6,2.5l1.1,2l1.1,2l1.1,2l1.4,1.7l1.4,1.7l1.4,1.4l1.7,1.1l3.9,2.2l3.9,2l4.5,1.4l4.5,1.1
	l4.8,0.6l4.8,0.6l5,0.3l5,0.3h15.4l5.6-0.3l5.3-0.3l5.3-0.8l4.8-0.8l4.5-1.1l3.9-1.7l3.9-2l3.4-2.2l3.1-2.8l2.8-3.4l2-3.6l2-4.5
	l1.1-4.8l0.8-5.6l0.3-6.1l-0.3-4.5l-0.8-4.2l-1.1-3.9l-1.7-3.4l-2-3.1l-2.5-2.8l-2.8-2.2l-3.1-2.2l-3.4-1.7l-3.9-1.7l-3.9-1.1
	l-4.5-1.1l-4.5-0.8l-4.8-0.8l-9.8-0.8l-9.8-0.8l-7.9-0.8l-5.9-1.1l-2.3-0.8l-1.7-0.6l-1.7-0.8l-1.1-1.1l-1.1-0.8l-0.6-1.4l-0.6-1.1
	l-0.3-1.7l-0.3-3.4l0.3-4.2l0.3-2l0.3-1.7l0.6-1.4l0.6-1.4l1.1-1.1l1.1-1.1l1.4-0.8l1.4-0.6l2-0.6l2.3-0.6l5.6-0.6l7-0.3l7.3,0.3
	l5.6,0.6l2.2,0.6l2.3,0.6l1.7,0.8l1.7,0.8l1.4,0.8l1.1,1.1l0.8,1.1l0.6,1.4l0.6,1.7l0.3,1.7l0.3,3.9h28l0.6-5.3l-0.3-2.5l-0.3-2.5
	l-0.3-2.5l-0.6-2.2l-0.8-2l-0.8-2l-1.1-1.7l-1.1-1.7l-1.4-1.4l-1.4-1.4l-3.4-2.5l-3.6-2l-3.9-1.7l-4.2-1.4l-4.2-0.8l-4.5-0.8
	l-4.8-0.3l-9-0.6l-9-0.3C518,277.7,512.1,278,512.1,278z M259.8,278l-6.7,0.6l-6.5,1.1l-5.6,1.4l-5,2l-2.5,1.1l-2.2,1.4l-2.2,1.4
	l-2,1.4l-1.7,1.7l-1.7,1.7l-1.7,2l-1.7,2.2l-1.1,2.2l-1.4,2.2l-2.3,5l-1.7,5.9l-1.4,6.4l-0.8,7l-0.6,7.6l-0.3,8.4l0.3,8.4l0.6,7.6
	l0.8,7.3l1.4,6.1l1.7,5.9l2,5l1.4,2.2l1.4,2.2l1.4,2l1.7,2l1.7,1.9l1.7,1.4l2,1.7l2.2,1.4l2.2,1.1l2.2,1.1l5.3,1.9l5.6,1.4l6.4,1.1
	l6.7,0.6h14l5.9-0.3l5.6-0.3l5.3-0.6l5.1-0.8l4.8-1.4l4.5-1.4l3.9-1.7l3.6-2.2l3.1-2.5l2.8-2.8l2.2-3.4l1.7-3.9l1.4-4.5l0.8-4.7
	l0.3-5.6v-4.5h-29.5v5l-0.3,2.2l-0.6,2.2l-0.8,1.7l-0.8,1.7l-1.1,1.1l-1.4,1.4l-1.7,0.8l-1.7,0.8l-2.3,0.8l-2.2,0.6l-2.5,0.6
	l-5.6,0.3l-6.7,0.3h-3.6l-3.4-0.3l-3.1-0.6l-2.8-0.6l-2.5-1.1l-2.2-1.1L248,377l-1.7-2l-1.4-2.2l-1.1-2.5l-1.1-3.1l-0.8-3.4
	l-0.6-3.6l-0.3-4.5l-0.3-4.8v-5.3h83.8v-8.1l-0.3-7.6l-0.6-7l-0.8-6.7l-1.4-5.9l-1.7-5.3l-2.3-5l-2.8-4.2l-1.4-2.2l-1.7-1.7l-1.7-2
	l-2-1.4l-2-1.7l-2.2-1.4l-4.5-2.2l-5.3-2l-5.6-1.7l-6.5-1.1l-7-0.6l-7.6-0.3L259.8,278L259.8,278z M240.7,323.9l0.3-3.6l0.6-3.4
	l0.6-2.8l0.8-2.8l0.8-2.2l1.4-2l1.4-2l1.7-1.4l2-1.4l2.2-1.1l2.3-0.8l2.8-0.6l3.1-0.6l3.4-0.3h7.3l3.4,0.3l3.1,0.6l2.8,0.6l2.5,0.8
	l2.2,1.1l2,1.4l2,1.4l1.4,2l1.4,2l0.8,2.2l0.8,2.8l0.8,2.8l0.3,3.4l0.3,3.6v3.6h-54.4L240.7,323.9L240.7,323.9z M71.1,278l-6.7,0.6
	l-6.5,1.1l-5.6,1.4l-5.3,2l-2.2,1.1l-2.2,1.4l-2.3,1.4l-1.9,1.4l-2,1.7l-1.7,1.7l-1.7,2l-1.4,2.2l-1.4,2.2l-1.1,2.2l-2.2,5l-1.7,5.9
	l-1.4,6.4l-0.8,7l-0.6,7.6l-0.3,8.4l0.3,8.4l0.3,7.6l1.1,7.3l1.1,6.1l1.7,5.9l2.3,5l1.1,2.2l1.4,2.2l1.7,2l1.4,2l1.7,1.9l2,1.4
	l2,1.7l2,1.4l2.3,1.1l2.5,1.1l5,1.9l5.9,1.4l6.2,1.1l7,0.6h13.7l5.9-0.3l5.9-0.3l5.3-0.6l5-0.8l4.8-1.4l4.2-1.4l3.9-1.7l3.6-2.2
	l3.4-2.5l2.5-2.8l2.3-3.4l2-3.9l1.1-4.5l0.8-4.7l0.3-5.6v-4.5h-29.2v5l-0.3,2.2l-0.6,2.2l-0.8,1.7l-0.8,1.7l-1.4,1.1l-1.4,1.4
	l-1.4,0.8l-2,0.8l-2,0.8l-2.3,0.6l-2.5,0.6l-5.9,0.3l-6.5,0.3H75l-3.6-0.3l-3.1-0.6l-2.5-0.6l-2.5-1.1l-2.2-1.1l-2-1.4l-1.7-2
	l-1.4-2.2l-1.1-2.5l-0.8-3.1l-0.8-3.4l-0.6-3.6l-0.3-4.5L52,351v-5.3h83.6V330l-0.6-7l-1.1-6.7l-1.1-5.9l-2-5.3l-2.3-5l-2.5-4.2
	l-1.4-2.2l-1.7-1.7l-1.7-2l-2-1.4l-2-1.7l-2.2-1.4l-4.5-2.2l-5.3-2l-5.9-1.7l-6.2-1.1l-7-0.6l-7.6-0.3C78.6,277.7,71.1,278,71.1,278
	z M52,323.9l0.3-3.6l0.3-3.4l0.8-2.8l0.6-2.8l1.1-2.2l1.1-2l1.4-2l1.7-1.4l2-1.4l2.2-1.1l2.5-0.8l2.8-0.6l3.1-0.6l3.4-0.3h7.3
	l3.4,0.3l3.1,0.6l2.8,0.6l2.5,0.8l2.2,1.1l2,1.4l1.7,1.4l1.7,2l1.1,2l1.1,2.2l0.8,2.8l0.6,2.8l0.6,3.4l0.3,3.6v3.6H52
	C52,327.5,52,323.9,52,323.9z"/>
</svg>
